<svg xmlns="http://www.w3.org/2000/svg" viewBox="0 0 341.45 480.95"><defs><style>.cls-1{fill:#fff;}</style></defs><title>Asset 2</title><g id="Layer_2" data-name="Layer 2"><g id="Layer_1-2" data-name="Layer 1"><path class="cls-1" d="M41,210c73.8-33.1,148.25-31.29,222.78-2.94C189.59,205.28,115.31,192.71,41,210Z"/><path class="cls-1" d="M155.84,419.24c-19.61,1.42-32.79-7.28-44.71-18.86C69.57,360,53,307.66,39.93,253.39c-4-16.61,4.62-16.51,15.81-14.23,64,13,127.93,12.85,191.94.13,9.22-1.83,18.85-1.74,15.66,12.07-14.09,61-33,119.65-85.07,160.5C171.27,417.35,162.88,419.8,155.84,419.24ZM141.68,273.88c-29.71,25.57-34.25,47.44-22.63,72.77,4.11,9,10.67,20,21,17.35,13.74-3.47,11.68-17.63,8.9-27.89C144.13,318.14,129.34,302.89,141.68,273.88Zm22.47,95.84c29-26.35,28.55-49.6,19.42-73.48-3.21-8.4-10.28-20.35-21-16.18-10.9,4.23-14.6,17.1-9,28.21C161.83,324.74,170.06,340.75,164.15,369.72Z"/><path class="cls-1" d="M267.29,321.46c6.7-24.6,11.52-45.75,18.41-66.2,3.82-11.34,15.24-11.85,25.11-9.3,14.58,3.78,10.53,15.15,6.48,23.68C307.38,290.53,297.3,311.91,267.29,321.46Z"/><path d="M141.68,273.88c-12.34,29,2.45,44.26,7.32,62.23,2.78,10.26,4.84,24.42-8.9,27.89-10.38,2.63-16.94-8.4-21-17.35C107.43,321.32,112,299.45,141.68,273.88Z"/><path d="M164.15,369.72c5.91-29-2.32-45-10.6-61.45-5.59-11.11-1.89-24,9-28.21,10.73-4.17,17.8,7.78,21,16.18C192.7,320.12,193.16,343.37,164.15,369.72Z"/><path d="M229.31,385.23c22.15,8.88,40.22,14,56.07,23,26.65,15.14,26.46,30.74.9,46.73-8.36,5.22-17.45,10.41-26.9,12.57-73.73,16.89-147.59,20-220.68-3C21.55,459.15-.76,453.87,0,430.47c.69-20.54,21.28-28.37,37.3-31.22C68.88,393.63,71.2,383,55.6,356.34c-23-39.12-32.68-83.66-41.16-128-4.92-25.71,3.47-43,30.49-50.54,72.29-20.22,144.24-20.2,216.18,1.1,4.71,1.4,11.35,2.65,13.26,6.09,13.33,24,31.42,40.48,58.23,50.07,12.22,4.37,9.69,21.93,4.8,33.77-14.21,34.42-26.36,69.79-73.09,74.33C242.33,345.28,247.53,373.44,229.31,385.23Zm-73.47,34c7,.56,15.43-1.89,22.43-7.38,52.1-40.85,71-99.49,85.07-160.5,3.19-13.81-6.44-13.9-15.66-12.07-64,12.72-128,12.89-191.94-.13-11.19-2.28-19.81-2.38-15.81,14.23C53,307.66,69.57,360,111.13,400.38,123.05,412,136.23,420.66,155.84,419.24ZM41,210c74.35-17.28,148.63-4.71,222.78-2.94C189.21,178.7,114.76,176.89,41,210ZM267.29,321.46c30-9.55,40.09-30.93,50-51.82,4-8.53,8.1-19.9-6.48-23.68-9.87-2.55-21.29-2-25.11,9.3C278.81,275.71,274,296.86,267.29,321.46Z"/><path d="M185.48,0c33.71,20.81,17.84,40.92,4.91,60.28-15.31,22.94-43.15,38.35-41.65,73.46-26.8-14.45-29.14-31.41-12-53.44C155.75,55.8,182,36,185.48,0Z"/><path d="M107.83,99.92c-24.57-46.63,36.17-58,41-93.25C170.08,51.35,113.42,65.23,107.83,99.92Z"/><path d="M171.57,139.08c-24.57-46.63,36.16-58,40.94-93.25C233.81,90.51,177.15,104.39,171.57,139.08Z"/></g></g></svg>