<svg xmlns="http://www.w3.org/2000/svg" viewBox="0 0 511.59 299.68"><defs><style>.cls-1{fill:#fff;}.cls-2{fill:#231f20;}</style></defs><title>Asset 2</title><g id="Layer_2" data-name="Layer 2"><g id="Layer_1-2" data-name="Layer 1"><path class="cls-1" d="M223.83,134.17c19.76-8.86,39.7-8.38,59.66-.79C263.63,132.91,243.74,129.54,223.83,134.17Z"/><path class="cls-1" d="M254.59,190.21c-5.25.38-8.78-2-12-5.05-11.13-10.81-15.57-24.83-19.07-39.37-1.07-4.44,1.24-4.42,4.23-3.81a129.16,129.16,0,0,0,51.41,0c2.47-.49,5-.47,4.19,3.23-3.77,16.34-8.83,32-22.78,43A8.92,8.92,0,0,1,254.59,190.21Zm-3.79-38.93c-8,6.85-9.17,12.7-6.06,19.49,1.1,2.4,2.86,5.35,5.63,4.65,3.68-.93,3.13-4.73,2.39-7.47C251.45,163.13,247.49,159.05,250.8,151.28Zm6,25.67c7.77-7.06,7.64-13.29,5.2-19.68-.86-2.25-2.76-5.45-5.63-4.33s-3.91,4.58-2.41,7.55C256.2,164.9,258.4,169.19,256.82,177Z"/><path class="cls-1" d="M284.44,164c1.79-6.59,3.08-12.25,4.93-17.73,1-3,4.08-3.17,6.72-2.49,3.91,1,2.82,4.06,1.74,6.35C295.17,155.74,292.47,161.46,284.44,164Z"/><path d="M250.8,151.28c-3.31,7.77.65,11.85,2,16.67.74,2.74,1.29,6.54-2.39,7.47-2.77.7-4.53-2.25-5.63-4.65C241.63,164,242.84,158.13,250.8,151.28Z"/><path d="M256.82,177c1.58-7.76-.62-12-2.84-16.46-1.5-3-.51-6.42,2.41-7.55s4.77,2.08,5.63,4.33C264.46,163.66,264.59,169.89,256.82,177Z"/><path d="M274.27,181.1c5.93,2.38,10.77,3.74,15,6.15,7.14,4.06,7.09,8.23.24,12.51a24.5,24.5,0,0,1-7.2,3.37c-19.74,4.52-39.53,5.35-59.1-.79-4.59-1.45-10.57-2.86-10.36-9.12.19-5.51,5.7-7.6,10-8.37,8.45-1.5,9.08-4.36,4.9-11.49-6.15-10.47-8.76-22.4-11-34.28-1.31-6.89.93-11.51,8.17-13.54a102.63,102.63,0,0,1,57.89.3c1.26.37,3,.71,3.55,1.63a27.67,27.67,0,0,0,15.6,13.41c3.27,1.17,2.59,5.87,1.28,9-3.8,9.22-7.06,18.69-19.57,19.91C277.75,170.4,279.15,177.94,274.27,181.1Zm-19.68,9.11a8.92,8.92,0,0,0,6-2c13.95-10.94,19-26.64,22.78-43,.85-3.7-1.72-3.72-4.19-3.23a129.16,129.16,0,0,1-51.41,0c-3-.61-5.3-.63-4.23,3.81,3.5,14.54,7.94,28.56,19.07,39.37C245.81,188.26,249.34,190.59,254.59,190.21Zm-30.76-56c19.91-4.63,39.8-1.26,59.66-.79C263.53,125.79,243.59,125.31,223.83,134.17ZM284.44,164c8-2.56,10.73-8.28,13.39-13.87,1.08-2.29,2.17-5.34-1.74-6.35-2.64-.68-5.7-.54-6.72,2.49C287.52,151.77,286.23,157.43,284.44,164Z"/><path d="M262.53,77.94c9,5.57,4.78,11,1.31,16.14-4.1,6.14-11.55,10.27-11.15,19.67-7.18-3.87-7.8-8.41-3.22-14.31C254.57,92.88,261.61,87.58,262.53,77.94Z"/><path d="M241.73,104.7c-6.58-12.49,9.69-15.54,11-25C258.4,91.69,243.23,95.4,241.73,104.7Z"/><path d="M258.8,115.18c-6.58-12.49,9.69-15.54,11-25C275.47,102.17,260.3,105.89,258.8,115.18Z"/><path class="cls-2" d="M5.42,147.79c.37,2.74,1.41,4.21,4.33,5.75a12.18,12.18,0,0,0,1.77.89,4.68,4.68,0,0,0,2.19.29,13.5,13.5,0,0,0,6.22-2.95c1.77-1.5,4.18-3.62,6.16-5.15l.4-.28c1.89-1.56,2.78-2.3,3.42-4,1.17-2.81,3.16-4.11,4.56-6,1.74-2.49,5.62-4.81,8-7.06,4.9-4.75,11.48-5.72,15-4.4l4.9,1.86c2.81,1.06,5,3.32,6.31,4.23,3.09,3.22,3.91,5.81,4.92,9.23l.12.47a22.67,22.67,0,0,1-.19,8.16,12.79,12.79,0,0,0-.73,1.68c-.47,1.23-.47,1.77,0,2.47.73,1.79-.74,5.14-1.21,7.45a4.09,4.09,0,0,1-.31,1.07c-.68,1.8-2.16,4.39-3.94,8a50.58,50.58,0,0,1-6,9.53l-.36.41c-3.39,4.46-5.4,6.08-8.28,5.21l-1.49-.57a95.84,95.84,0,0,1-9.27-4.05l-.44-.17c-1-.36-2.44-.7-3.49-1.1-1.31-.5-2.27-1.4-1.73-2.82a1.56,1.56,0,0,1,1.75-1.18,86.5,86.5,0,0,0,8.78-.47c4.27-.44,6.5-2.63,8.88-3.89,2.49-1,5.37-1.76,6.68-4.41,1.08-2.08,3.92-4.79,4.78-7.07a3.26,3.26,0,0,0,.23-.88c0-.1.85-3,.89-3.14a23.35,23.35,0,0,0,1-4.49c-.56-2.49,0-3.91-1.4-5.84-1.2-1.86-1.53-3.61-4.58-5.09-.35-.13-.66-.36-1-.49-5.43-2.05-10.36,1.71-14.1,5.5-2.42,2.44-5.2,2.36-7.92,7.18-2.65,4.62-5.73,5.08-7.57,8.61-1.76,3.34-8.74,8.82-11.1,9.23l-.46.15c-2.39.5-6.3,1.3-10.15-.16-5.6-2.12-7.81-7.4-8.71-8.71C.27,158-.12,151.32,0,149.86a53,53,0,0,1,2.61-13c.47-1.23,2.24-5.11,2.67-6.25,1.25-3.31,4-4.54,5.31-7.95.29-.76.36-3.87.76-4.91s1.2-1.6,4.32-.86,3.41.54,5.62,1,5.9.28,8,1.08c1,.36,1.18,1.1.79,2.14-.75,2-2.31,1.61-3.88,1.78-1.39.23-3.34.9-5.28,1.25a10.5,10.5,0,0,0-4.74,2.21l-.44.38c-1.66,1.21-4.91,3.44-5.43,4.55-1,2.33-3,3.32-3.93,5.88A20.73,20.73,0,0,0,5.42,147.79Zm.33,13.66a11.75,11.75,0,0,0,5.77,3.81c3.5,1.33,5.85,2,9.4-.23s9.13-6.94,10-8.55,1.79-3.65,3.58-4.17,2-1.74,3-3.09,6.07-6.26,9.68-9.44,6-5,8.59-5c2-.1,4.45-.38,6.72.49a7.08,7.08,0,0,1,1.82,1,28.9,28.9,0,0,1,3.72,3.14,15.64,15.64,0,0,0-5.57-7A13,13,0,0,0,60,131.18c-3.41-1.29-7.24-1.23-9.86.92-3.34,2.75-7,5.17-8.29,6.83s-2.75,3.83-3.51,4-6.59,6.06-7.67,8.36-4.25,4.35-6.61,6.37A21.91,21.91,0,0,1,16.27,162a7.18,7.18,0,0,1-4.76-.39,16.87,16.87,0,0,1-3.55-2c-2.16-1.68-3.43-5.74-4.66-6.2-.17-.07-.42.05-.56.43C2.17,155.33,3.77,159.29,5.75,161.45Zm42.42,18.88a12.3,12.3,0,0,0,3.12.74c1.88.06,3.49,0,4.43-1.13a34.51,34.51,0,0,0,3.84-5.37,8.74,8.74,0,0,0,.55-1.2c.15-.38.22-.57,0-.64-.35-.13-1.33.36-2.85,1.2-2.88,1.51-3.63,3-7.19,3.12s-4.88-.87-5.45.65C44.37,178.45,46.24,179.6,48.17,180.33Z"/><path class="cls-2" d="M79.23,70.45a41.35,41.35,0,0,0,8.27,2.94,20.36,20.36,0,0,1,5.31,2.19c2.38,1,3.51,2.14,6.41,2.82,1.31.1,5.39,2.12,6.25,2.49a30.78,30.78,0,0,1,6.12,2.34c2.13.73,4.3,1.19,5.79,2.12,2,1.35,4.88,1.69,7.29,2.44a6.1,6.1,0,0,0,5.36-.36,3.76,3.76,0,0,0,.82-.6l.53-.47c.23-.2.38-.34.65-.33s.53.29.9.71a.6.6,0,0,1,.07.69,34.64,34.64,0,0,1-4.17,4.3A12.12,12.12,0,0,1,127.25,93a17.12,17.12,0,0,0-1.66,1.34c-1.06.94-5.1,4.63-5.78,5.24a15.57,15.57,0,0,1-2.61,1.93c-.23.2-1.16,1.14-1.23,1.21a8,8,0,0,1-1,1c-.69.6-1.27.87-1.64.44s-.64-1.18.2-1.92,1.25-1.48.83-2.11c-.18-.21-.23-.42-.35-.56-.31-.35-.47-.22-1-.85s-1.9-1.07-2.81-1.64c-1.6-.59-6.28-3.45-8.12-3.08a1.84,1.84,0,0,0-1.22.46c-.38.33-.63.81-1.09,1.21-1.59,1.41-5.07,4.36-5.89,5a9.16,9.16,0,0,0-1.43,1.13c-1.44,1.28-2.7,2.76-4.82,4.64-1.28,1-1.89,1.54-2.65,2.21s-1.67.85-2.21,1.32a3.2,3.2,0,0,0-.76,1.43c-.21.68,1.23,2.16,2.19,4.32a2.58,2.58,0,0,0,.6.83c.75.85,2,2,2.57,2.61a7.1,7.1,0,0,0,3.53,2,4.93,4.93,0,0,0,1.94-.71,7,7,0,0,1,1.4-.86,1.19,1.19,0,0,1,1.34.44.8.8,0,0,1-.13,1.24c-.3.27-.77.81-1.53,1.48a14.62,14.62,0,0,1-1.43,1.13c-1,.8-6.11,5-9.29,7.84a32,32,0,0,0-2.67,2.48,9.15,9.15,0,0,1-1.08,1.08c-.68.6-1.34.93-1.71.51a1.42,1.42,0,0,1,0-2.13A6.3,6.3,0,0,0,80,127.28c-1.13-3.12-.55-4.14-1.47-6-.22-.55-2.07-7.54-2.36-8.78a36.07,36.07,0,0,0-1.67-6.65c-1.39-3.4-1.93-6.92-3-10.59-.46-1.59.77-2-.28-4a15.23,15.23,0,0,1-1.8-4c-.61-2.22-.64-3.94-1.35-5.81a58.48,58.48,0,0,0-1.93-6.17,10.69,10.69,0,0,1-1.52-4.78c-.12-1.51-.12-2.89,1.17-4,1.06-.94,3.15-.41,6.62.77C74.11,67.72,77.32,69.52,79.23,70.45Zm-9.46,4a7,7,0,0,0,1.17,2.09,3.43,3.43,0,0,0,.7.64c1.18.58,4.22,1.26,6.73,2.42s4.45,1.07,6.35,2.14S88.87,84.43,89.6,84s1.28-.38,2.34.81,4,1.88,5.85,3,1.91.19,3.64,1.53,3.2,1.18,4.43,2,2.8,1,5,2a44.56,44.56,0,0,1,4.14,2.09c1.71.86,2.76,2.06,4,1.6a4.16,4.16,0,0,0,.81-.46c.53-.47.8-1.08,1.71-1.89a.58.58,0,0,0,0-.89c-.86-1-4.27-2.09-6.29-2.69-2.56-.61-4.64-1.89-5.66-2.12s-3.31-2.07-3.89-1.81-2.69-.75-3.29-1-4.28-2.09-6.6-3l-6.29-2.69c-1.73-.72-3.5-1.66-4.42-2.09a75,75,0,0,0-7.73-2.79c-2.22-.67-3.73-2.08-5.08-2.38-1.34-.45-2.38-1.78-3-1.24-.76.67-.18,1.16.33,2.21C69.72,74.23,69.71,74.36,69.77,74.43Zm5,13.87c-.08.83,0,1.17.14,1.38s.26.14.45.36a2.49,2.49,0,0,1,.44,1.11,15.92,15.92,0,0,0,.55,2.76A56.18,56.18,0,0,0,78,100.55c.53,2.28,1.27,5.26,2.32,6.45.31.35.75.09,1.51-.59l1.37-1.2c.53-.47,1.33-.93,2.17-1.67a10.82,10.82,0,0,0,1.21-1.69l.45-.41c.61-.53,1.36-1.07,2.34-1.94,2.13-1.88,3.53-2.74,5.43-4.41.3-.27,2.51-2.35,2.38-3.11a1.18,1.18,0,0,0-.34-.7,7.13,7.13,0,0,0-2.17-1.08c-1.11-.64-4.4-1.61-6.33-3-1.42-1-4.2-.79-7.59-2.79-2.37-1.15-6.22-2.75-7-2.08S74.81,86.1,74.72,88.3Zm7.44,36.42c.28,1.24.07,2.68.71,3.87.25.28.75.08,1.36-.45.45-.41,1-1,1.61-1.55,1.29-1.14,2.07-2.08,2-2.23-.44-.49-1.9-.31-2.68-.88a16.79,16.79,0,0,1-1.33-1.2,12.11,12.11,0,0,1-1-1.47,1.07,1.07,0,0,0-.3-.49c-.18-.21-.32-.21-.47-.08a1.51,1.51,0,0,0-.28,1.37C81.92,122.92,81.87,123.47,82.16,124.72Z"/><path class="cls-2" d="M140.84,24.41c-.31-.68.35-1.18,2.11-2,.37-.17,7.17-2.81,10.68-4.39.8-.46,6.57-3.67,8-4.29.92-.42,2-.7,2.45,0l.16.34c.3.69-.14,1.19-1.06,1.61A6.57,6.57,0,0,0,159.73,19a6.47,6.47,0,0,0-.68,2.45c-.24,1.45-.83,1.61-1.08,5-.07,1.57-.26,3.61-.52,6.49-.46,4.42.14,7.23-.66,8.92s.29,2.13,0,4.42c-.12,2.21.16,5.06-.12,7.65-.44,3-.56,4.67-.26,6.08a58.05,58.05,0,0,1-.52,8.75c-.29,1.57.69,4,.08,5.61-.49,1.86,1.57,7.2-.64,8.19-1.21.54-4.22,1.49-5.56.24L143,77.44c-1.68-1.51-3.51-2.12-4.68-3.75s-2.84-2.11-4.26-3.53-2.17-2.62-4.39-3.36-3.14-2.29-4.18-3.36-1.12-1.76-2.67-2.5a30.53,30.53,0,0,1-4.18-3.36c-1.67-1.5-1.91-2.52-4-3.65a24.45,24.45,0,0,1-6.31-4.66,11.83,11.83,0,0,0-4.56-3.7,4.25,4.25,0,0,0-3.6-.85c-2.35.44-3.15.39-3.55-.25s-.22-1.23,1-1.77c.83-.38,1-.55,1.35-.71a2.1,2.1,0,0,1,.68-.21c1.28-.37,7.45-2.93,8.69-3.39,2.22-1,7.57-3.91,8.59-4.37,1.2-.54,3.69-1.66,4.15-.64a1.25,1.25,0,0,1-.66,1.74c-.46.21-1.87,1.77-1.61,3.09a1.7,1.7,0,0,0,.21.72A11.83,11.83,0,0,0,121.32,42c.84,1.88,3.48,3.06,4.62,5.11,1,1.5,2.24,3,3.32,2.93.76,0,5.85,4.86,6.51,5.59,1.26,1.08,2.49,1.35,3.55,2.72,1.81,2.06,4.75,2.89,5.87,5.16.54,1.2,2.31,1.43,3.2,2.16,1.39,1.12,2.32,2.45,3.06,2.11.09,0,.41-5,.4-5.52l.12-5.18c.23-2-.25-3.28.09-5a7.14,7.14,0,0,0-.11-4c-.34-4.46.29-7.52,0-11.17,0-1.75-1.39-3.59-1.83-6.78-.07-.17-.06-.38-.13-.56-.43-.93-1.56-2-2.36-3.25-.8-1.79-3.6-2.08-4.61-1.62S141.2,25,140.84,24.41Zm-36,18.66c.23.51,3.79.76,5.12,2,1.51,1.38,1,1.63,3.59,4s3.36,3,5.67,5c1.64,1.42,3.23,1,3.77,2.21.65,1.45,1.87,1.93,3,2.88s3.21,2.46,4.93,4.05c1.86,1.42,3,3.56,4.22,4s2,1.68,3.87,3.19,5.38,3.33,7.21,5.17,3.39,4.33,5.31,4.91a1.23,1.23,0,0,0,.77,0c1-.45.48-2.88-.08-4.38s-3.48-2.54-6.55-5.17a76,76,0,0,0-7.65-5.9c-1.4-.91-2.92-1.56-3.42-2.67a9.86,9.86,0,0,0-3.09-2.93,104.18,104.18,0,0,1-9.23-7.45c-2.88-2.7-5.4-4.35-6.64-5.63s-1.11-2-3.38-3.31c-1.82-1.34-5.18-1.16-6.66-.5C104.82,42.86,104.76,43,104.8,43.07ZM152.26,27.6a30.75,30.75,0,0,0,1.05,3.32c.23.52.44.73.72.61.64-.29.84-3.57.83-5.31s-.32-3.44.38-5.09c.16-.38.18-.6.14-.68-.12-.26-.62-.14-1.26.15s-1.26.67-2,1c-1.11.5-2.24.7-2.79.95-.37.17-.52.34-.4.59C149.93,24.64,151.42,25.72,152.26,27.6Z"/><path class="cls-2" d="M206.34,15.36A41.35,41.35,0,0,0,212,22.11a20.55,20.55,0,0,1,3.45,4.58c1.53,2.09,1.93,3.64,4.08,5.71,1.07.74,3.55,4.56,4.1,5.31a31.91,31.91,0,0,1,4.08,5.14c1.46,1.72,3.08,3.22,3.9,4.78,1,2.19,3.33,3.94,5,5.81a6.11,6.11,0,0,0,4.8,2.42,3.44,3.44,0,0,0,1-.1l.7-.13a.92.92,0,0,1,.73,0c.23.15.3.52.41,1.07a.59.59,0,0,1-.3.63A34.72,34.72,0,0,1,238.16,59a12.21,12.21,0,0,1-2,.28,17.21,17.21,0,0,0-2.1.31c-1.4.27-6.75,1.38-7.65,1.55a15.12,15.12,0,0,1-3.23.34c-.3.05-1.58.39-1.68.41a7.76,7.76,0,0,1-1.37.36c-.9.17-1.53.1-1.63-.45-.15-.74,0-1.35,1.14-1.56s1.84-.63,1.8-1.39c-.05-.27,0-.48,0-.66-.09-.46-.29-.42-.45-1.25-.19-1-1.08-1.89-1.57-2.85-1.08-1.32-3.65-6.16-5.42-6.78a1.82,1.82,0,0,0-1.28-.23c-.5.09-1,.37-1.56.49-2.09.39-6.58,1.16-7.59,1.26a9.23,9.23,0,0,0-1.81.25c-1.89.36-3.73,1-6.52,1.52-1.61.22-2.4.37-3.4.56a22,22,0,0,1-2.57,0,3.18,3.18,0,0,0-1.39.84c-.53.48,0,2.49-.32,4.83a2.79,2.79,0,0,0,.1,1c.21,1.1.72,2.72.88,3.55a7.08,7.08,0,0,0,2,3.52,5.34,5.34,0,0,0,2,.38,6.62,6.62,0,0,1,1.65,0c.63.07.85.69.92,1.06a.79.79,0,0,1-.74,1c-.39.08-1.07.3-2.07.49a12.2,12.2,0,0,1-1.8.25c-1.32.16-7.82,1.21-12,2a33.1,33.1,0,0,0-3.56.78,9,9,0,0,1-1.48.38c-.89.17-1.62.11-1.73-.44a1.43,1.43,0,0,1,1.1-1.83A6.26,6.26,0,0,0,178,64.62c.62-3.26,1.64-3.84,1.77-5.86.1-.59,2.07-7.55,2.46-8.77a36.63,36.63,0,0,0,1.94-6.56c.54-3.63,1.87-6.94,2.82-10.65.41-1.6,1.69-1.37,1.79-3.58a15.63,15.63,0,0,1,.5-4.39c.61-2.21,1.46-3.71,1.8-5.68a58.57,58.57,0,0,0,1.49-6.29A10.6,10.6,0,0,1,193.69,8c.66-1.37,1.37-2.55,3.06-2.88,1.39-.26,2.92,1.26,5.31,4C203.33,10.41,205.17,13.58,206.34,15.36ZM181.19,63.54c-.39,1.21-1.31,2.34-1.36,3.69.07.37.6.45,1.4.3.6-.11,1.37-.36,2.17-.51,1.69-.32,2.85-.73,2.82-.92-.13-.64-1.48-1.24-1.85-2.12a16.32,16.32,0,0,1-.54-1.71,12.12,12.12,0,0,1-.13-1.79,1.1,1.1,0,0,0,0-.57c-.05-.27-.17-.35-.36-.31a1.5,1.5,0,0,0-.94,1C181.9,61.88,181.57,62.32,181.19,63.54Zm12.17-35.12c-.49.67-.64,1-.58,1.26s.15.25.2.53a2.37,2.37,0,0,1-.19,1.18,16.27,16.27,0,0,0-.93,2.66,55.38,55.38,0,0,0-2,6.56c-.71,2.24-1.59,5.17-1.29,6.73.09.46.6.46,1.6.27l1.79-.34c.69-.13,1.62-.12,2.72-.33a10,10,0,0,0,1.9-.84l.6-.11c.79-.16,1.71-.24,3-.48,2.78-.53,4.43-.56,6.92-1,.39-.07,3.36-.73,3.64-1.45a1.29,1.29,0,0,0,.06-.78c-.13-.64-.75-1.19-1.32-2-.63-1.12-3-3.63-3.9-5.84-.71-1.58-3.22-2.82-5.11-6.27-1.45-2.2-4-5.54-4.94-5.35S194.56,26.57,193.36,28.42ZM196.17,14a7,7,0,0,0-.06,2.4,3.63,3.63,0,0,0,.28.9c.72,1.1,3,3.24,4.56,5.52s3.29,3.18,4.37,5.07,2.19,4.45,3,4.48,1.3.32,1.59,1.89,2.45,3.63,3.53,5.52,1.56,1.13,2.36,3.17,2.15,2.64,2.81,4,1.89,2.31,3.3,4.32a42.82,42.82,0,0,1,2.5,3.91c1,1.62,1.33,3.18,2.61,3.41a4.25,4.25,0,0,0,.93,0c.7-.14,1.24-.53,2.44-.75a.59.59,0,0,0,.47-.76c-.24-1.29-2.61-4-4-5.52-1.9-1.83-3-4-3.79-4.71s-1.79-3.47-2.42-3.54-1.94-2-2.34-2.51-2.61-4-4.13-6l-4-5.52C209,27.72,208,26,207.38,25.17a72.12,72.12,0,0,0-5.23-6.34c-1.56-1.7-2.14-3.69-3.15-4.64s-1.14-2.74-1.94-2.59c-1,.19-.75.91-.84,2.07C196.24,13.76,196.16,13.87,196.17,14Z"/><path class="cls-2" d="M311.36,23.77c-.1,1.31-.1,2.62-.16,3.46-.1,1.4-.57,2.31-.66,3.52-.31,4.2-.27,5-.37,6.36-.25,3.36-.31,7-.55,10.29-.21,2.8-.35,11.52-.5,13.67-.07.93-.7,2.58-2.22,2.47-2.22-.17-2.77-1-4-1.8s-5.16-5.73-6-6.83c-1.1-1.68-2.3-1.95-3.59-3.74-2.49-3.37-5.57-7.07-7.69-10-2.58-3.57-6.11-6.74-7.17-8.89a15.5,15.5,0,0,0-3.11-4.64c-.83-1.09-2.74-4.05-4.15-5.65-.55-.8-3.73-4.5-4.57-5.5l-3.36-4c-.15,2.06-.22,4.31-.39,6.64L262.27,27c-.28,3.82.06,3.38-.13,6-.07.84-1.12,1.42-1.23,2.83s.72,1.27.6,2.95c-.1,1.31.12,3.86,0,5.17-.2,2.8.07,1.88.72,4s1,2.43,2.05,4a13.68,13.68,0,0,0,3.59,3.65c.87.53,2.79.67,2.65,2.54-.07.93-.79,1.07-2,1-.81-.06-1.91-.24-2.92-.31l-2.93-.22a17.19,17.19,0,0,1-4.32-.69,17,17,0,0,0-1.8-.32c-1.51-.11-2.66.27-4.28.25-1.42,0-2.77.27-3.77.19a2.33,2.33,0,0,1-1.2-.37c-.48-.32-.66-.61-.63-1s.46-.81,1.09-1.05A21,21,0,0,0,252.33,53c1.41-1.21,2.06-3,2.76-4.3a10.69,10.69,0,0,0,1.1-3.86c0-.38.14-.65.17-1,.08-1-.06-2,0-2.63l.49-6.63c.08-1.12.32-3,.43-4.39a29.11,29.11,0,0,1,.84-4.63c.14-1.87-.37-3.22-.25-4.8l.27-3.65c.11-1.58.27-3.64.33-5.89a17.11,17.11,0,0,1,0-2.72A4.91,4.91,0,0,0,257.1,5c-2.53-2.91-5-2.91-4.91-3.65s.5-1.37,1.61-1.29L255,.1c.9.06,1.82,0,2.73.1a6.37,6.37,0,0,1,1.3.19,20.92,20.92,0,0,1,3.56,0c2.63.2,5.43.69,7.35.83,1,.07,4.7,5.13,5.41,6.5a13.76,13.76,0,0,0,4.23,4.72c.86.72.24,2.18,1.76,3.61,1.32,1.41,3.94,4.42,5.05,5.91s3.1,3.42,3.32,4.56,2,2.78,2.95,4.07.77,1.93,1.52,2.74c1,.82,5.05,4.59,5.36,5.84a14.49,14.49,0,0,0,3,3.78c1.22,1.41,1.06,2.15,2.27,2.24.51,0,.63-.24.67-.71.16-2.24,0-4.5.26-7.68.16-2.24.52-4.28.67-6.33s.08-2.53.11-2.9c.08-1.12.23-1.77.36-3.55,0-1.4-.29-1.61-.22-2.45.09-1.22,0-2,.12-3.09.21-2.8-.06-1.89-.61-4.09S305,12,304,10.46a13.47,13.47,0,0,0-3.59-3.64c-.88-.54-2.79-.68-2.66-2.55.07-.93.79-1.06,2-1,.81.06,1.92.24,2.93.31l3.33.25a19.3,19.3,0,0,1,4,.58,7.19,7.19,0,0,0,1.9.32c1.42.11,2.56-.18,4.08-.17s2.66-.27,3.77-.19a3,3,0,0,1,1.29.38,1,1,0,0,1,.65.89c0,.47-.58.9-1.2,1.13a20.68,20.68,0,0,0-4.46,2.59c-1.51,1.2-2.15,3-2.85,4.29a8.79,8.79,0,0,0-1.1,3.87C312,19.12,311.42,22.93,311.36,23.77ZM255.55,53.56a32,32,0,0,0-2.41,2.27,16.57,16.57,0,0,1,3.59-.4l.6,0c1.71.22,3.11.6,4.22.68a6.94,6.94,0,0,0,1.43-.08c.41-.06.51-.15.52-.24,0-.38-1.24-1-1.87-2.11-.91-1.48-1.48-2-1.61-3,0-.76-.39-1.53-.9-1.57-.2,0-.52.15-.76.7A11.53,11.53,0,0,1,255.55,53.56Zm8.31-45.39c1.56,2.27,3.55,5.61,5.13,6.29s1.23,2.62,2.82,4.34a92.18,92.18,0,0,1,6.89,8.58,39.88,39.88,0,0,0,4.6,6.44c1.7,1.72,3.62,4.68,5.66,7.27s2.26,3.83,4.27,5.38,2.39.65,3,2.38c.83,2.41,8.48,11.71,9.69,11.8.7.05.93-.31,1-.87A7.08,7.08,0,0,0,306.6,58c-.4-1.43-4.69-6.54-6.66-8.75s-5.15-6-5.82-6.53-1.82-2.86-4.06-5.56-2.9-3.31-4.29-5.1-3-3.88-3.32-4.66-2.44-2.71-3.81-4.69-3.63-5.9-4.48-6.81-4.49-5.21-5.62-6.33-3-5-3.94-5.83c-.57-.6-2.66-1.13-4.17-1.24-.81-.06-1.42,0-1.65.25C258.6,3.83,262.3,6,263.86,8.17Zm48.9.68c.22-.26,2.6-2.25,2.4-2.26a17.28,17.28,0,0,1-3.58.39l-.61,0c-1.71-.22-3.1-.61-4.21-.69a7.63,7.63,0,0,0-1.43.08c-.41.07-.52.15-.53.25,0,.37,1.25,1,1.88,2.11.91,1.47,1.48,2,1.6,3,.05.76.5,1.54,1,1.58.21,0,.42-.16.67-.7A11.29,11.29,0,0,1,312.76,8.85Z"/><path class="cls-2" d="M394,50c-.47,1.23-.84,2.49-1.15,3.28-.5,1.31-1.21,2-1.64,3.18-1.51,3.93-1.71,4.76-2.18,6-1.2,3.15-2.31,6.64-3.48,9.7-1,2.62-3.64,10.94-4.41,12.95-.33.88-1.4,2.27-2.82,1.73-2.09-.8-2.38-1.71-3.35-2.88s-3.3-7-3.78-8.26c-.57-1.92-1.64-2.53-2.36-4.61-1.42-4-3.31-8.38-4.52-11.75-1.45-4.16-3.91-8.21-4.31-10.57a15.83,15.83,0,0,0-1.65-5.34c-.48-1.28-1.47-4.67-2.36-6.61-.3-.92-2.28-5.38-2.8-6.58l-2.07-4.8c-.73,1.92-1.44,4.06-2.27,6.25L346,39c-1.37,3.58-.92,3.25-1.85,5.7-.3.79-1.48,1-2,2.35s.32,1.43-.28,3c-.47,1.22-1,3.73-1.46,4.95-1,2.63-.48,1.82-.46,4s.31,2.62.81,4.41A13.9,13.9,0,0,0,343.2,68c.69.76,2.49,1.45,1.82,3.2-.33.87-1.06.79-2.2.36-.76-.29-1.76-.77-2.71-1.14l-2.74-1a17.41,17.41,0,0,1-3.94-1.91,14.65,14.65,0,0,0-1.64-.82c-1.42-.54-2.62-.5-4.17-1-1.36-.42-2.72-.54-3.67-.9a2.28,2.28,0,0,1-1-.7c-.38-.44-.47-.78-.33-1.13s.68-.64,1.34-.69A21,21,0,0,0,329,61.11c1.7-.76,2.84-2.33,3.87-3.34a10.32,10.32,0,0,0,2.16-3.38c.14-.35.33-.58.46-.93.37-1,.52-1.91.75-2.52l2.37-6.21c.4-1,1.16-2.76,1.67-4.08a27.53,27.53,0,0,1,2.14-4.19c.67-1.75.57-3.19,1.13-4.68l1.31-3.41c.56-1.49,1.3-3.41,2-5.55a21.16,21.16,0,0,1,.78-2.61,4.89,4.89,0,0,0-.27-3.81c-1.59-3.52-3.93-4.21-3.66-4.91a1.29,1.29,0,0,1,1.92-.77l1.13.44c.86.32,1.74.56,2.59.88a6.88,6.88,0,0,1,1.2.56,20.32,20.32,0,0,1,3.41,1c2.46.94,5,2.22,6.81,2.9.95.36,3,6.27,3.32,7.78A13.87,13.87,0,0,0,366.82,30c.61.94-.39,2.16.65,4,.86,1.73,2.51,5.37,3.14,7.11s2,4.17,1.87,5.33,1.15,3.24,1.66,4.74.19,2.07.68,3.06c.68,1.06,3.51,5.85,3.45,7.14A14.51,14.51,0,0,0,380,65.84c.76,1.69.4,2.35,1.54,2.79.47.18.67,0,.83-.48.8-2.1,1.32-4.31,2.46-7.29.8-2.1,1.72-4,2.46-5.87s.8-2.4.94-2.75c.4-1.05.73-1.63,1.36-3.29.41-1.35.19-1.63.49-2.42.44-1.14.61-1.87,1-2.92,1-2.63.48-1.82.58-4.09s-.43-2.57-.93-4.37a13.75,13.75,0,0,0-2.4-4.52c-.68-.76-2.48-1.45-1.81-3.2.33-.87,1.06-.79,2.2-.36.76.29,1.76.77,2.71,1.14l3.12,1.19a20.93,20.93,0,0,1,3.69,1.7A7,7,0,0,0,400,32c1.32.5,2.5.55,3.95,1s2.63.5,3.67.9a3,3,0,0,1,1.13.73,1,1,0,0,1,.36,1,1.65,1.65,0,0,1-1.47.74,20.55,20.55,0,0,0-5,1.2c-1.8.72-2.94,2.29-4,3.3a8.74,8.74,0,0,0-2.16,3.38C395.94,45.75,394.29,49.23,394,50ZM332,62.52c-.29.19-3.14,1.41-3,1.48a17,17,0,0,1,3.54.66l.57.21c1.57.7,2.8,1.47,3.84,1.87a7.22,7.22,0,0,0,1.39.33c.41.06.54,0,.57-.08.14-.35-.89-1.35-1.19-2.56-.44-1.67-.84-2.33-.66-3.36.17-.74.06-1.58-.42-1.76-.19-.08-.54,0-.93.44A11.19,11.19,0,0,1,332,62.52Zm21-41.09c.84,2.62,1.78,6.39,3.1,7.49s.42,2.87,1.46,5a94.87,94.87,0,0,1,4.13,10.2,40.4,40.4,0,0,0,2.56,7.49c1.14,2.14,2.12,5.52,3.34,8.59s1.06,4.32,2.55,6.39,2.1,1.3,2.16,3.13c.11,2.55,4.77,13.65,5.9,14.08a.8.8,0,0,0,1.19-.55,6.8,6.8,0,0,0,.25-1.81c0-1.49-2.62-7.61-3.87-10.3s-3.2-7.23-3.7-7.92-.92-3.26-2.29-6.49-1.83-4-2.65-6.12-1.72-4.57-1.84-5.42-1.56-3.3-2.31-5.59-1.78-6.69-2.33-7.8-2.81-6.29-3.57-7.68-1.42-5.66-2.1-6.72c-.37-.74-2.22-1.85-3.64-2.39-.76-.29-1.36-.42-1.65-.23C349.16,15.76,352.09,18.89,353,21.43Zm46.64,14.69a30.71,30.71,0,0,0,2.95-1.48A16.72,16.72,0,0,1,399,34l-.57-.21c-1.58-.71-2.8-1.47-3.84-1.87a7.22,7.22,0,0,0-1.39-.33c-.41-.06-.54,0-.58.08-.13.35.9,1.34,1.19,2.56.45,1.67.85,2.33.67,3.36-.17.74,0,1.62.51,1.8.19.07.44,0,.83-.48A11.49,11.49,0,0,1,399.61,36.12Z"/><path class="cls-2" d="M449.4,77.69a41.59,41.59,0,0,0-1.74,8.61,20.56,20.56,0,0,1-1.41,5.56c-.66,2.5-1.62,3.78-1.89,6.75.09,1.31-1.33,5.63-1.57,6.53a31.19,31.19,0,0,1-1.44,6.4c-.43,2.21-.58,4.42-1.29,6-1.05,2.18-1,5.07-1.38,7.56a6.13,6.13,0,0,0,1.12,5.26,3.73,3.73,0,0,0,.71.72l.54.46c.23.2.39.33.42.6s-.21.56-.57,1a.61.61,0,0,1-.68.17,34.07,34.07,0,0,1-4.85-3.52,11.56,11.56,0,0,1-1.48-1.38,14.73,14.73,0,0,0-1.56-1.45c-1.08-.92-5.31-4.4-6-5a15.78,15.78,0,0,1-2.29-2.31c-.23-.2-1.29-1-1.37-1.05a6.76,6.76,0,0,1-1.14-.85c-.69-.59-1-1.12-.67-1.55s1.08-.8,1.93-.08,1.65,1,2.21.53c.18-.22.38-.29.5-.43.3-.36.15-.49.7-1.13.66-.79.79-2,1.23-3,.35-1.67,2.52-6.71,1.89-8.48a1.9,1.9,0,0,0-.62-1.14c-.39-.33-.9-.52-1.36-.91-1.62-1.38-5-4.4-5.74-5.13a8.87,8.87,0,0,0-1.33-1.25c-1.46-1.25-3.11-2.28-5.27-4.12-1.17-1.12-1.79-1.65-2.56-2.31-.93-.78-1.09-1.53-1.63-2a3,3,0,0,0-1.52-.56c-.7-.11-2,1.52-4,2.78a2.5,2.5,0,0,0-.74.72c-.73.85-1.67,2.27-2.21,2.91a7,7,0,0,0-1.49,3.77,5.26,5.26,0,0,0,1,1.82,7.3,7.3,0,0,1,1.05,1.27,1.16,1.16,0,0,1-.25,1.38.79.79,0,0,1-1.24,0c-.31-.26-.91-.65-1.68-1.3a14.55,14.55,0,0,1-1.33-1.26c-.94-.92-5.83-5.33-9.07-8.09A32.65,32.65,0,0,0,386.51,88a9.07,9.07,0,0,1-1.21-.91c-.7-.59-1.12-1.2-.75-1.62a1.43,1.43,0,0,1,2.11-.3,6.27,6.27,0,0,0,6.6,1.31c2.93-1.56,4-1.12,5.68-2.29.51-.3,7.17-3.12,8.36-3.58a36.54,36.54,0,0,0,6.34-2.6c3.17-1.85,6.58-2.89,10.05-4.47,1.51-.69,2.14.46,3.92-.85a15.82,15.82,0,0,1,3.73-2.36c2.11-.91,3.81-1.19,5.56-2.15a58.84,58.84,0,0,0,5.83-2.79,10.85,10.85,0,0,1,4.51-2.18c1.49-.34,2.85-.53,4.16.59,1.08.92.85,3.06.18,6.66C451.38,72.24,450.06,75.67,449.4,77.69ZM396.11,88.27c-1.2.47-2.65.46-3.73,1.26-.24.28,0,.75.64,1.28.46.39,1.14.85,1.76,1.37,1.31,1.12,2.35,1.76,2.47,1.62.43-.5.05-1.93.5-2.77a16.35,16.35,0,0,1,1-1.49,11.19,11.19,0,0,1,1.31-1.22,1.13,1.13,0,0,0,.44-.36c.18-.22.16-.35,0-.49a1.51,1.51,0,0,0-1.39-.08C397.85,87.79,397.3,87.81,396.11,88.27Zm35-12.51c-.83,0-1.17.11-1.35.33s-.11.28-.29.49a2.41,2.41,0,0,1-1,.6,16.69,16.69,0,0,0-2.66.93,56.53,56.53,0,0,0-6.34,2.6c-2.18.85-5,2-6.05,3.21-.3.35,0,.75.79,1.41l1.39,1.18c.54.46,1.11,1.19,2,1.92a9.47,9.47,0,0,0,1.85.95l.46.4c.62.52,1.25,1.18,2.25,2,2.16,1.84,3.21,3.1,5.14,4.74.31.27,2.69,2.16,3.42,1.93a1.22,1.22,0,0,0,.64-.44,7.41,7.41,0,0,0,.76-2.3c.48-1.19,1-4.59,2.11-6.7.78-1.54.18-4.27,1.68-7.91.8-2.51,1.84-6.55,1.07-7.2S433.28,75.53,431.1,75.76Zm13-6.87a6.92,6.92,0,0,0-1.9,1.46,2.94,2.94,0,0,0-.53.78c-.41,1.25-.66,4.36-1.45,7s-.42,4.55-1.21,6.58-2.1,4.49-1.6,5.16.56,1.22-.47,2.43-1.3,4.18-2.09,6.21.09,1.92-1,3.83-.71,3.33-1.31,4.66-.62,2.92-1.3,5.28a42.7,42.7,0,0,1-1.48,4.4c-.62,1.81-1.65,3-1,4.17a3.64,3.64,0,0,0,.57.73c.54.46,1.18.64,2.11,1.43a.59.59,0,0,0,.89-.1c.85-1,1.46-4.54,1.76-6.61.24-2.63,1.22-4.87,1.3-5.91s1.58-3.57,1.24-4.11.36-2.77.49-3.39,1.47-4.53,2.08-7L441,89.32c.48-1.81,1.15-3.69,1.45-4.67a72.82,72.82,0,0,0,1.67-8.05c.35-2.28,1.53-4,1.64-5.36s1.42-2.61.8-3.13-1.18,0-2.14.63C444.32,68.82,444.18,68.82,444.12,68.89Z"/><path class="cls-2" d="M469.05,102.47c.92-.66,1.75-1.26,3-.65a6.09,6.09,0,0,0,6-.8c.84-.6,1.22-1.37,1.77-3,.35-1.12.67-1.48,2.72-3,1.36-.85,3.52-.4,5-.45.56,0,1.42.85,2.13,1.84a18.25,18.25,0,0,1,1.81,3.18c.6,1.32-.76,4.41-1.9,5.23-.78.68-1.67,1.69-2.5,2.29a3,3,0,0,1-1.61.65,10.61,10.61,0,0,1-3.95.59,11.44,11.44,0,0,0-4,0c-.83,0-2.32.3-2.93-.39-.86-.88-2.43-.5-3.38-1.19-.45-.3-1.61-.47-2.32-1.46C467.84,103.83,468.37,103,469.05,102.47Zm15-4.91c-.13,0-.21,0-.36.13-1.14.82-4.77,5.41-4.36,6s4.26-.81,5-1.08c.27.05.58-.17,1-.44a16.76,16.76,0,0,0,1.55-1.36,2,2,0,0,0-.08-2.69,1.72,1.72,0,0,0-.49-.52C485.22,96.74,484.5,97.5,484.08,97.56Z"/><path class="cls-2" d="M499.7,139.43c-1.72-1.56-3.13-1.93-5.8-1.34a8.36,8.36,0,0,0-1.66.35,4.07,4.07,0,0,0-1.47.93A9.8,9.8,0,0,0,488.7,144l-1.11,6.59c-.53,2.21-.68,3.23-.19,4.67.72,2.42.15,4.22.24,6.23.17,2.51-.8,6-1.12,8.62-.63,5.67-5,10.27-8.28,11.38l-3.72,1.27c-2.31.79-5,.52-6.22.63-3.84-.52-5.8-2.2-8.35-3.9a17.39,17.39,0,0,1-4.28-5.28,11.32,11.32,0,0,0-.43-1.57c-.33-1-.64-1.28-1.21-1.51-1.42-.69-2.23-3.63-3.12-5.36-.09-.29-.28-.55-.38-.83-.49-1.44-.95-4-1.76-7.21a40.35,40.35,0,0,1-1.13-9.68c-.16-4.55.19-6.7,2.47-7.58,3.4-1.05,6.67-2.17,9.7-2.88.8-.27,1.88-.86,2.77-1.16,1.15-.39,2.2-.22,2.59.93a1.36,1.36,0,0,1-.43,1.65c-1.36,1.21-3.08,2.55-5.43,5-2.52,2.46-2.71,5.09-3.61,7.11s-2.42,3.93-1.93,6.23c.44,1.88.09,5.21.75,7.12.32,1,1,1.9,1.43,3a18.15,18.15,0,0,0,1.68,3.49c1.68,1.14,2.1,2.39,3.88,3,2.29.61,3.6,1.55,6.52.56,4.52-1.54,5.36-6.64,5.73-11.05.22-2.86,2-4.23,1.21-8.66s1-6.33.31-9.52,1.2-11,2.47-12.5a14.51,14.51,0,0,1,6.85-4.59c4.69-1.6,8.87.51,10.11.94,2.86.85,6.5,4.85,7.25,5.88a44.58,44.58,0,0,1,5.14,9.59c.36,1,1.21,4.4,1.57,5.46.91,2.68-.18,5,.77,7.76.19.58,1.81,2.7,2.07,3.47.24,1,.08,1.68-2.31,2.82s-2.43,1.57-4,2.34-4,2.95-5.72,3.55c-.71.25-1.31-.08-1.61-.95-.55-1.63.62-2.24,1.49-3.18s1.71-2.51,2.76-3.51c1.57-1.5,3.38-8.64,3-10.24-.55-2.48.13-3.68-.56-5.69A16.84,16.84,0,0,0,499.7,139.43ZM455.31,141a8.66,8.66,0,0,0-2.38,1.14c-1.29.86-2.24,1.83-2.24,3,.09,2-.14,4.22.64,6.52.1.29.16.48.34.42s.66-1,1.19-2.33c1-2.49.69-3.77,3-5.73s3.46-2,3-3.28C458.69,140.14,456.91,140.43,455.31,141Zm36.81-10.41a10,10,0,0,0-5.62.63c-2.92,1-4.81,1.85-5.93,5.23s-2.15,9.08-1.8,10.68.78,3.16-.13,4.54-.27,2.12-.29,3.52a98.66,98.66,0,0,1-1.11,11c-.62,4-1.18,6.4-2.9,7.73-1.31,1.09-2.67,2.63-4.62,3.29a13,13,0,0,1-5.57.19,12.56,12.56,0,0,0,7.15,1.52,9.18,9.18,0,0,0,2.4-.5c2.83-1,5.19-3.05,5.73-5.8.62-3.43,1.71-6.9,1.69-8.71s-.33-3.85.11-4.32a35.49,35.49,0,0,0,.46-9.36c-.48-2.3,1.36-11.7,3.52-14.36a7.5,7.5,0,0,1,3.31-2.2,11.87,11.87,0,0,1,3.23-.68c2.26,0,5.19,1.87,6.16,1.54a.45.45,0,0,0,.19-.6C497.68,132.63,494.64,131,492.12,130.56Z"/><path class="cls-2" d="M89.45,225c-8.32,0-17.84,24.24-17.84,35.36,0,4.56,4,9.29,7.52,9.29,3,0,6.32-4.25,10.08-9,.56-.64,1-1.12,1.76-1.12,1,0,4.16,2.48,4.16,3.44a4.5,4.5,0,0,1-.88,2.08c-1.76,2.81-3.44,5.85-5.92,8.33-1.44,1.44-5,2.16-8.16,2.16-7.36,0-18.32-8-18.32-15.69,0-14,12-41.13,23.92-41.13,6.56,0,15.28,5.53,15.28,9.61,0,2.32-2.64,7.44-4.64,10.72-.48.72-.88,1.28-1.52,1.28-1.28,0-5-1.92-5-3.36a6.69,6.69,0,0,1,.72-2.16c1.12-2.8,2.16-5.28,2.16-7.44C92.81,226.39,91.21,225,89.45,225Z"/><path class="cls-2" d="M124.42,269.76c-1,0-2.08,0-3.2-.08-2.64,3.52-5.76,5.92-9.12,5.92-5.6,0-14.81-5.28-14.81-11.05,0-11.12,7.93-26.56,16.49-26.56,6.16,0,14.88,5.84,14.88,10.8,0,4.24-1.6,10.16-4.16,15.44a5.68,5.68,0,0,0,2.08.32c5.68,0,9.44-7.84,9.44-7.84s.72-1.44,1.68-1.44c1.12,0,2.88,1.28,2.88,2.24a8.16,8.16,0,0,1-1.12,2.8S134.58,269.76,124.42,269.76Zm-13.92.32c.88,0,2-.8,3.12-2.16a2.21,2.21,0,0,1-1-1.77c0-1.6,3.28-4.88,5.12-5.2,2-4.56,3.6-10,3.6-13.84,0-1.76-2.16-3.2-3.76-3.2-4.08,0-10.64,13.6-10.64,22.56A3.87,3.87,0,0,0,110.5,270.08Z"/><path class="cls-2" d="M153.23,269c-2.4,2.16-6.8,3.92-9.84,4.64,0,0,1.76,10.32,1.76,16.72,0,4.56-3.69,9.28-8,9.28-4.48,0-9-3.84-9-7.84,0-5.84,14.73-60.09,18.25-70.57.4-1.21,1-1.69,1.76-1.69,1.44,0,6.72,3,6.72,4.33a8.68,8.68,0,0,1-.32,2c-.56,2.08-7,24.4-12,42.88,4.49-.64,10.49-2.4,12.81-10.48,4.16-14.72,7.76-28.72,9.52-33.84.4-1.21,1-1.69,1.76-1.69,1.44,0,6.72,3,6.72,4.33a8.68,8.68,0,0,1-.32,2c-.56,2.08-6.16,21.2-11.12,39.68,4.56-.64,9.12-4.4,13.28-12.08,0,0,.64-1.44,1.68-1.44s2.72,1.28,2.72,2.24a9,9,0,0,1-1,2.8c-4.32,7.61-8.88,11.45-15,13,0,0,1.76,10.72,1.76,17.12,0,4.56-3.68,9.28-8,9.28a8.07,8.07,0,0,1-7.6-7.76A113.29,113.29,0,0,1,153.23,269Zm-17.69,24a2.12,2.12,0,0,0,2.08,2.4c1.12,0,2.64-2.56,2.64-5.36,0-6.48-.88-15.36-.8-15.36S135.54,287.52,135.54,293Zm20.81.56a1.64,1.64,0,0,0,1.52,1.84c1.12,0,2.8-2.56,2.8-5.36a66.68,66.68,0,0,0-1.84-15.76S156.35,288.08,156.35,293.6Z"/><path class="cls-2" d="M190.84,238c4.08,0,11.44,4,11.44,7.44,0,4-5.12,16.8-10.32,16.8a32,32,0,0,1-7.52-1.12,9.84,9.84,0,0,0-.65,3.92c0,1.92,3.45,4.89,6.89,4.89,4.32,0,10.64-3,15.84-13.21,0,0,.64-1.44,1.68-1.44s2.72,1.28,2.72,2.24a9,9,0,0,1-1,2.8c-5.44,10.33-12.4,15.29-18.88,15.29-7.05,0-16.73-5.2-16.73-11.45C174.35,255.11,183.39,238,190.84,238Zm5.12,8.24a2.36,2.36,0,0,0-2.4-2c-3.12,0-7.84,9.52-8.56,13.28C192.68,257.51,196,248.39,196,246.23Z"/><path class="cls-2" d="M220.6,269.92c3.76,0,7.52-2.81,10.41-6.73,0,0,1-1.6,2-1.6,1.12,0,2.8,1.52,2.8,2.48s-1.36,2.72-1.36,2.72c-3.2,4.25-8.57,8.81-15.37,8.81-5.84,0-13.68-5.68-13.68-11.05,0-9,9-26.56,16.4-26.56,3.68,0,11.45,4.8,11.45,7.84,0,4.4-5.13,16.4-10.33,16.4a32,32,0,0,1-7.52-1.12,9.87,9.87,0,0,0-.4,3C215,267,218.36,269.92,220.6,269.92Zm5.92-24.09c0-.72-1.28-1.6-2.4-1.6-3.12,0-7.44,9.52-8.16,13.28C223,257.51,226.52,248.87,226.52,245.83Z"/><path class="cls-2" d="M297.26,218.78c1.36,0,5.68,3.28,5.68,4.48,0,.73-4.4,4.49-5.12,6.65s-3,10.64-5.28,19H306.3c2.24-8.16,4.88-17,6.64-22.48.8-2.56,6.41-7.61,7.29-7.61,1.36,0,5.44,3.28,5.44,4.48,0,.73-3.52,4.65-4.16,6.81-1.52,5-3.61,12.16-5.45,18.8h2.81a.71.71,0,0,1,.72.72c0,.8-1.28,3.92-2.32,3.92h-2.49c-1.52,5.92-2.64,11-2.64,13.21,0,1,2.33,3.36,2.33,4.08,0,1.2-5.61,4.8-7,4.8-1,0-5.36-5.6-5.36-8.32,0-1.93,1.2-7.29,2.88-13.77H291.34c-2,7.2-3.76,13.52-4.32,14.41-1.68,2.72-9.68,7.68-14,7.68-4.57,0-16.41-11.13-16.41-13.53,0-1.28,4.64-5.12,6.4-5.12a1.34,1.34,0,0,1,1.28.8c1.84,3.52,7.61,11.85,9.45,11.85,1.12,0,3-1.37,4.16-3.53.4-.8,1.92-6.24,3.6-12.56h-5.84a.74.74,0,0,1-.8-.72c0-.8,1.36-3.92,2.4-3.92h5.52c1.92-7,3.76-14,4.56-16.56a12.52,12.52,0,0,1,3.12-4.48s-9.68,1.92-15.12,5.2a3,3,0,0,0-1.44,2.4c0,1.84,2,7.28,2,8.4s-3,3-4.33,3c-1.6,0-6.88-7.84-6.88-9.84,0-2.8,6.16-10.24,8.4-10.72,5.37-1.12,10.57-2.08,18.81-4.09C292.86,221.91,296.38,218.78,297.26,218.78Z"/><path class="cls-2" d="M347.11,269.76c-1,0-2.08,0-3.2-.08-2.64,3.52-5.76,5.92-9.12,5.92-5.6,0-14.8-5.28-14.8-11.05,0-11.12,7.92-26.56,16.48-26.56,6.16,0,14.88,5.84,14.88,10.8,0,4.24-1.6,10.16-4.16,15.44a5.68,5.68,0,0,0,2.08.32c5.68,0,9.45-7.84,9.45-7.84s.72-1.44,1.68-1.44c1.12,0,2.88,1.28,2.88,2.24a8.16,8.16,0,0,1-1.12,2.8S357.28,269.76,347.11,269.76Zm-13.92.32c.88,0,2-.8,3.12-2.16a2.21,2.21,0,0,1-1-1.77c0-1.6,3.28-4.88,5.12-5.2,2-4.56,3.6-10,3.6-13.84,0-1.76-2.16-3.2-3.76-3.2-4.08,0-10.64,13.6-10.64,22.56A3.87,3.87,0,0,0,333.19,270.08Z"/><path class="cls-2" d="M377.92,269.92s-7.6,5.68-10.64,5.68c-4.16,0-10.4-4.4-10.4-7.76,0-3.77,5.44-23.29,7-28.33.48-1.12,1-1.52,1.76-1.52,1.52,0,6.8,2.8,6.8,4.24a7.42,7.42,0,0,1-.32,1.92c-.56,2.08-5.68,19.2-5.68,22.88a2.84,2.84,0,0,0,2.16,2.25c3.2,0,9.12-7,9.84-9.61,2-6.48,4.64-16.8,5.68-20.16a1.8,1.8,0,0,1,1.68-1.52c1.6,0,6.89,2.8,6.89,4.24a7.42,7.42,0,0,1-.33,1.92c-.72,2.08-6.08,19.44-6.08,23.69a2.73,2.73,0,0,0,2.16,2.24c2.32,0,6.72-6.17,10.65-13.37,0,0,.72-1.44,1.76-1.44s2.72,1.28,2.72,2.24a8.51,8.51,0,0,1-1,2.8c-4.48,8-9.13,15.29-14.89,15.29C384.08,275.6,378.48,272.24,377.92,269.92Z"/><path class="cls-2" d="M432.09,256.71s.72-1.44,1.76-1.44,2.72,1.28,2.72,2.24a8.51,8.51,0,0,1-1,2.8c-4.4,8-12.16,15.29-24.16,15.29-8,0-16.4-8.57-16.4-13.53,0-3.92,6.64-7,6.64-7s7.68-11.76,10.4-16.24a3.25,3.25,0,0,1,2.56-1.84c1,0,5.84,3.12,5.84,4.56,0,7.76,3,14.72,3,20.72,0,3-2.48,6.49-2.48,6.49C424.41,267.11,428.17,263.91,432.09,256.71Zm-27.52,5c0,4,2.56,8.17,4.72,8.17,2.72,0,4.8-2.81,4.8-5.69,0-5.76-1.84-11.76-1.84-16.08C412.25,248.15,404.57,259.11,404.57,261.75Z"/><path class="cls-2" d="M446.18,269.92c3.76,0,7.52-2.81,10.4-6.73,0,0,1-1.6,2-1.6,1.12,0,2.8,1.52,2.8,2.48s-1.36,2.72-1.36,2.72c-3.2,4.25-8.56,8.81-15.36,8.81-5.84,0-13.69-5.68-13.69-11.05,0-9,9-26.56,16.41-26.56,3.68,0,11.44,4.8,11.44,7.84,0,4.4-5.12,16.4-10.32,16.4a32,32,0,0,1-7.52-1.12,9.87,9.87,0,0,0-.4,3C440.58,267,443.94,269.92,446.18,269.92Zm5.92-24.09c0-.72-1.28-1.6-2.4-1.6-3.12,0-7.44,9.52-8.16,13.28C448.58,257.51,452.1,248.87,452.1,245.83Z"/></g></g></svg>